<svg xmlns="http://www.w3.org/2000/svg" viewBox="0 0 800 500"><rect width="800" height="500" fill="#9adbe8"/><circle cx="650" cy="90" r="55" fill="#f4a261"/><path d="M0 360c160-80 300-60 450-20s250 20 350-40v200H0z" fill="#2a9d8f"/><path d="M0 405c150-35 300-30 450 5s260 25 350-10v100H0z" fill="#f7e2a0"/><path d="M185 335c20-90 55-145 125-185-35 70-58 130-65 200z" fill="#6a4c2d"/><path d="M298 160c-85 20-145 65-180 120 78-26 142-65 180-120z" fill="#1b7f5a"/><path d="M305 160c-10 85 4 153 42 208 15-82 4-151-42-208z" fill="#1b7f5a"/></svg>